<svg width="34" height="31" viewBox="0 0 34 31" fill="none" xmlns="http://www.w3.org/2000/svg">
<circle cx="13.1969" cy="18.297" r="12.2512" fill="#242424"/>
<path d="M13.0557 10.7861C14.9536 10.7861 16.4324 12.2141 16.4326 13.9043C16.4326 15.5947 14.9538 17.0234 13.0557 17.0234C11.1576 17.0234 9.67871 15.5946 9.67871 13.9043C9.67892 12.2141 11.1577 10.7861 13.0557 10.7861Z" stroke="white" stroke-linecap="round"/>
<path d="M6.47561 22.1458C7.09222 19.8933 9.46128 18.8801 11.7967 18.8801H15.0994C17.4348 18.8801 19.8039 19.8933 20.4205 22.1458C20.5205 22.5112 20.6017 22.9004 20.6538 23.3099C20.7234 23.8578 20.2697 24.3079 19.7174 24.3079H7.17871C6.62643 24.3079 6.17273 23.8578 6.24236 23.3099C6.29439 22.9004 6.37559 22.5112 6.47561 22.1458Z" stroke="white" stroke-linecap="round"/>
</svg>
